# xmcd CD database file
#
# Track frame offsets:
#	150
#	18847
#	40248
#	62466
#	77241
#	103996
#	109811
#	133153
#
# Disc length: 2128 seconds
#
# Revision: 0
# Processed by: cddbd v1.5.2PL0 Copyright (c) Steve Scherf et al.
# Submitted via: CDex 1.51
#
DISCID=66084e08
DTITLE=Stanley Clarke  -  Let Me Know You
DYEAR=1982
DGENRE=Blues
TTITLE0=Straight To The Top
TTITLE1=Let Me Know You
TTITLE2=You Are The One For Me
TTITLE3=I Just Want To Be Your Brother
TTITLE4=The Force Of Love
TTITLE5=Play The Bass
TTITLE6=Secret To My Heart
TTITLE7=New York City
EXTD=YEAR: 1982
EXTT0=
EXTT1=
EXTT2=
EXTT3=
EXTT4=
EXTT5=
EXTT6=
EXTT7=
PLAYORDER=
